<svg preserveAspectRatio="none" width="38" height="38" viewBox="0 0 38 38" fill="none" xmlns="http://www.w3.org/2000/svg">
<path vector-effect="non-scaling-stroke" d="M19.0189 3.17285C10.2778 3.16764 3.18753 10.2494 3.18231 18.9905C3.1771 27.7316 10.2589 34.8219 19 34.8272C23.1994 34.834 27.2286 33.1675 30.1962 30.1962C33.165 27.23 34.8341 23.2061 34.8366 19.0095C34.8418 10.2684 27.76 3.17807 19.0189 3.17285ZM19.0194 33.2438C11.1527 33.2491 4.77125 26.8764 4.76584 19.0097C4.76053 11.1431 11.1334 4.7615 19 4.75619C22.7795 4.74942 26.4059 6.24907 29.0767 8.92326C31.7485 11.5925 33.251 15.2136 33.2535 18.9903C33.2589 26.8569 26.886 33.2384 19.0194 33.2438ZM20.1194 19L25.157 13.9624C25.4587 13.6546 25.4587 13.162 25.157 12.8542C24.851 12.542 24.3498 12.537 24.0376 12.8429L19 17.8805L13.9624 12.843C13.6546 12.5414 13.162 12.5414 12.8542 12.843C12.542 13.149 12.537 13.6502 12.8429 13.9624L17.8805 19L12.8429 24.0376C12.6945 24.186 12.6112 24.3873 12.6111 24.5972C12.6111 25.0344 12.9655 25.3889 13.4027 25.389C13.6127 25.3893 13.8142 25.3058 13.9624 25.1571L19 20.1195L24.0376 25.1571C24.1858 25.3058 24.3873 25.3893 24.5973 25.389C24.8072 25.3889 25.0084 25.3056 25.1569 25.1573C25.4661 24.8481 25.4661 24.3468 25.157 24.0376L20.1194 19Z" fill="#E4E4E4"/>
</svg>
