<svg preserveAspectRatio="none" width="100" height="85" viewBox="0 0 100 85" fill="none" xmlns="http://www.w3.org/2000/svg">
<g clip-path="url(#clip0_162_524)">
<g filter="url(#filter0_dd_162_524)">
<path vector-effect="non-scaling-stroke" d="M13.1708 9.99999C13.9827 9.99999 14.7946 10.4621 15.4134 11.3938L50.0025 63.4803L84.5916 11.4013C85.8292 9.53788 87.8342 9.53788 89.0718 11.4013C90.3094 13.2647 90.3094 16.2835 89.0718 18.1469L52.2401 73.6024C51.0025 75.4659 48.9975 75.4659 47.7599 73.6024L10.9282 18.1469C9.6906 16.2835 9.6906 13.2647 10.9282 11.4013C11.547 10.4621 12.3589 9.99999 13.1708 9.99999Z" fill="white"/>
<path vector-effect="non-scaling-stroke" d="M49.1694 64.0335L50.0024 65.2879L50.8355 64.0336L85.4246 11.9546C85.9074 11.2276 86.4364 11.0037 86.8317 11.0037C87.227 11.0037 87.7559 11.2276 88.2388 11.9546C88.7268 12.6893 89 13.7066 89 14.7741C89 15.8416 88.7268 16.8589 88.2388 17.5936L51.4071 73.0492C50.9242 73.7762 50.3953 74 50 74C49.6047 74 49.0758 73.7762 48.5929 73.0492L11.7612 17.5936C11.2733 16.8589 11 15.8416 11 14.7741C11 13.7066 11.2733 12.6893 11.7612 11.9546L11.7633 11.9515C12.244 11.2219 12.7724 11 13.1708 11C13.5705 11 14.0996 11.2233 14.5803 11.947C14.5803 11.9471 14.5804 11.9471 14.5804 11.9471L49.1694 64.0335Z" stroke="#0173FA" stroke-opacity="0.5" stroke-width="2"/>
</g>
</g>
<defs>
<filter id="filter0_dd_162_524" x="-15" y="-19" width="130" height="115" filterUnits="userSpaceOnUse" color-interpolation-filters="sRGB">
<feFlood flood-opacity="0" result="BackgroundImageFix"/>
<feColorMatrix in="SourceAlpha" type="matrix" values="0 0 0 0 0 0 0 0 0 0 0 0 0 0 0 0 0 0 127 0" result="hardAlpha"/>
<feOffset dy="-4"/>
<feGaussianBlur stdDeviation="12.5"/>
<feComposite in2="hardAlpha" operator="out"/>
<feColorMatrix type="matrix" values="0 0 0 0 0.00392157 0 0 0 0 0.45098 0 0 0 0 0.980392 0 0 0 1 0"/>
<feBlend mode="normal" in2="BackgroundImageFix" result="effect1_dropShadow_162_524"/>
<feColorMatrix in="SourceAlpha" type="matrix" values="0 0 0 0 0 0 0 0 0 0 0 0 0 0 0 0 0 0 127 0" result="hardAlpha"/>
<feOffset dy="4"/>
<feGaussianBlur stdDeviation="2"/>
<feComposite in2="hardAlpha" operator="out"/>
<feColorMatrix type="matrix" values="0 0 0 0 0.00392157 0 0 0 0 0.45098 0 0 0 0 0.980392 0 0 0 1 0"/>
<feBlend mode="normal" in2="effect1_dropShadow_162_524" result="effect2_dropShadow_162_524"/>
<feBlend mode="normal" in="SourceGraphic" in2="effect2_dropShadow_162_524" result="shape"/>
</filter>
<clipPath id="clip0_162_524">
<rect vector-effect="non-scaling-stroke" width="100" height="85" fill="white"/>
</clipPath>
</defs>
</svg>
