<svg preserveAspectRatio="none" width="49" height="48" viewBox="0 0 49 48" fill="none" xmlns="http://www.w3.org/2000/svg">
<g filter="url(#filter0_d_162_519)">
<path vector-effect="non-scaling-stroke" d="M22.0886 10.0004C19.8771 10.0592 18.1219 11.9601 18.1219 14.2228C18.1215 14.3454 18.1453 14.4668 18.1919 14.5801C18.2386 14.6935 18.3073 14.7964 18.3939 14.8831C18.4806 14.9697 18.5836 15.0384 18.6969 15.0851C18.8102 15.1318 18.9316 15.1555 19.0542 15.1551C19.1763 15.1548 19.2972 15.1305 19.4099 15.0835C19.5226 15.0365 19.6249 14.9677 19.711 14.8812C19.7971 14.7946 19.8652 14.6918 19.9116 14.5789C19.9579 14.4659 19.9815 14.3449 19.981 14.2228C19.981 12.8802 20.9867 11.8577 22.1938 11.8577C23.4009 11.8577 24.4011 12.8802 24.4011 14.2228C24.4011 15.5654 23.4009 16.5952 22.1938 16.5952H10.925C10.68 16.5961 10.4453 16.6939 10.272 16.8672C10.0987 17.0404 10.001 17.2752 10 17.5202C9.99953 17.6421 10.0231 17.763 10.0693 17.8758C10.1155 17.9887 10.1835 18.0913 10.2694 18.1779C10.3553 18.2645 10.4574 18.3333 10.5699 18.3804C10.6824 18.4275 10.8031 18.452 10.925 18.4525H22.1938C24.4548 18.4525 26.2602 16.5214 26.2602 14.2228C26.2602 11.9242 24.4548 10.0004 22.1938 10.0004C22.1585 10.0004 22.1237 9.99948 22.0886 10.0004ZM31.9282 14.2083C29.6672 14.2083 27.8636 16.1321 27.8636 18.4307C27.8631 18.5526 27.8866 18.6735 27.9329 18.7863C27.9791 18.8992 28.0471 19.0018 28.133 19.0884C28.2189 19.175 28.321 19.2438 28.4335 19.2909C28.5459 19.338 28.6666 19.3625 28.7886 19.363C28.9111 19.3634 29.0326 19.3396 29.1459 19.293C29.2592 19.2463 29.3622 19.1776 29.4488 19.091C29.5355 19.0043 29.6042 18.9013 29.6508 18.788C29.6975 18.6747 29.7213 18.5532 29.7208 18.4307C29.7208 17.0881 30.721 16.0674 31.9282 16.0674C33.1353 16.0674 34.1427 17.0881 34.1427 18.4307C34.1427 19.7733 33.1353 20.8031 31.9282 20.8031H10.925C10.68 20.804 10.4453 20.9018 10.272 21.075C10.0987 21.2483 10.001 21.483 10 21.7281C9.99953 21.85 10.0231 21.9709 10.0693 22.0837C10.1155 22.1966 10.1835 22.2992 10.2694 22.3858C10.3553 22.4724 10.4574 22.5412 10.5699 22.5883C10.6824 22.6354 10.8031 22.6599 10.925 22.6603H31.9282C34.1891 22.6603 36 20.7293 36 18.4307C36 16.1321 34.1891 14.2083 31.9282 14.2083ZM10.925 25.0055C10.8031 25.006 10.6824 25.0305 10.5699 25.0776C10.4574 25.1247 10.3553 25.1935 10.2694 25.2801C10.1835 25.3666 10.1155 25.4693 10.0693 25.5821C10.0231 25.695 9.99953 25.8158 10 25.9378C10.001 26.1828 10.0987 26.4175 10.272 26.5908C10.4453 26.7641 10.68 26.8618 10.925 26.8628H24.0456C25.2528 26.8628 26.2602 27.8926 26.2602 29.2351C26.2602 30.5777 25.2528 31.6003 24.0456 31.6003C22.8385 31.6003 21.8383 30.5777 21.8383 29.2351C21.8388 29.1126 21.815 28.9911 21.7683 28.8778C21.7216 28.7645 21.653 28.6615 21.5663 28.5749C21.4797 28.4882 21.3767 28.4196 21.2634 28.3729C21.15 28.3262 21.0286 28.3024 20.906 28.3029C20.7841 28.3034 20.6634 28.3279 20.5509 28.375C20.4385 28.4221 20.3364 28.4909 20.2505 28.5774C20.1646 28.664 20.0966 28.7666 20.0503 28.8795C20.0041 28.9923 19.9806 29.1132 19.981 29.2351C19.981 31.5338 21.7847 33.4575 24.0456 33.4575C26.3066 33.4575 28.1175 31.5338 28.1175 29.2351C28.1175 26.9557 26.3364 25.0392 24.1018 25.0073C24.0831 25.0061 24.0644 25.0055 24.0456 25.0055H10.925Z" fill="#53E045"/>
</g>
<defs>
<filter id="filter0_d_162_519" x="0" y="0" width="50" height="47.4575" filterUnits="userSpaceOnUse" color-interpolation-filters="sRGB">
<feFlood flood-opacity="0" result="BackgroundImageFix"/>
<feColorMatrix in="SourceAlpha" type="matrix" values="0 0 0 0 0 0 0 0 0 0 0 0 0 0 0 0 0 0 127 0" result="hardAlpha"/>
<feOffset dx="2" dy="2"/>
<feGaussianBlur stdDeviation="6"/>
<feComposite in2="hardAlpha" operator="out"/>
<feColorMatrix type="matrix" values="0 0 0 0 0.595833 0 0 0 0 1 0 0 0 0 0.612 0 0 0 0.3 0"/>
<feBlend mode="normal" in2="BackgroundImageFix" result="effect1_dropShadow_162_519"/>
<feBlend mode="normal" in="SourceGraphic" in2="effect1_dropShadow_162_519" result="shape"/>
</filter>
</defs>
</svg>
