<svg preserveAspectRatio="none" width="38" height="38" viewBox="0 0 38 38" fill="none" xmlns="http://www.w3.org/2000/svg">
<mask id="path-1-inside-1_162_513" fill="white">
<path vector-effect="non-scaling-stroke" d="M34.9751 19.6442H37.3555C37.711 19.6442 37.9996 19.3556 37.9996 19.0001C37.9996 18.6446 37.711 18.356 37.3555 18.356H34.9751L37.8759 14.3886C38.0854 14.1018 38.0236 13.6982 37.7359 13.4886C37.4491 13.2774 37.0446 13.3418 36.836 13.6286L33.3795 18.356H26.2674C26.1335 16.8266 25.5272 15.432 24.5937 14.3182L29.6234 9.28761L35.4105 10.1859C35.4439 10.191 35.4774 10.1936 35.5101 10.1936C35.8218 10.1936 36.0966 9.96602 36.1455 9.64828C36.1996 9.2962 35.9592 8.96729 35.608 8.91319L30.7518 8.15921L32.4349 6.47605C32.6865 6.22444 32.6865 5.81653 32.4349 5.56492C32.1833 5.3133 31.7754 5.3133 31.5238 5.56492L29.8406 7.24807L29.0858 2.39182C29.0317 2.0406 28.7062 1.80358 28.3507 1.85425C27.9995 1.90835 27.7591 2.23811 27.8132 2.58934L28.7123 8.37647L23.6826 13.407C22.5688 12.4727 21.1742 11.8673 19.6448 11.7325V4.62115L24.3722 1.16467C24.6599 0.954273 24.7217 0.551518 24.5121 0.264695C24.3026 -0.0221283 23.8973 -0.085676 23.6122 0.124718L19.6448 3.02558V0.644264C19.6448 0.28874 19.3563 0.000199283 19.0007 0.000199283C18.6452 0.000199283 18.3567 0.28874 18.3567 0.644264V3.02473L14.3884 0.124718C14.1007 -0.085676 13.698 -0.0238458 13.4885 0.264695C13.2781 0.551518 13.3416 0.955132 13.6284 1.16467L18.3558 4.62115V11.7333C16.8264 11.8682 15.4318 12.4736 14.318 13.407L9.2875 8.37733L10.1857 2.5902C10.2398 2.23811 9.99939 1.90921 9.64817 1.8551C9.29694 1.80444 8.96804 2.04145 8.91308 2.39268L8.15911 7.24893L6.47597 5.56577C6.22436 5.31416 5.81646 5.31416 5.56485 5.56577C5.31323 5.81739 5.31323 6.2253 5.56485 6.47691L7.24798 8.16007L2.39179 8.91319C2.04057 8.96729 1.80012 9.29705 1.85422 9.64828C1.90403 9.96602 2.17797 10.1936 2.48969 10.1936C2.52232 10.1936 2.55581 10.191 2.5893 10.1859L8.37637 9.28761L13.406 14.3173C12.4726 15.4311 11.8672 16.8257 11.7323 18.3552H4.62109L1.16379 13.6286C0.953398 13.3409 0.551506 13.2791 0.263827 13.4886C-0.0229928 13.699 -0.085681 14.1018 0.123852 14.3886L3.02469 18.356H0.64425C0.288731 18.356 0.000193211 18.6446 0.000193211 19.0001C0.000193211 19.3556 0.288731 19.6442 0.64425 19.6442H3.02469L0.124711 23.6116C-0.0856811 23.8984 -0.0221341 24.302 0.264686 24.5116C0.379757 24.5957 0.512863 24.6361 0.64425 24.6361C0.84262 24.6361 1.03841 24.5451 1.16465 24.3716L4.62109 19.6442H11.7332C11.868 21.1736 12.4734 22.5682 13.4077 23.682L8.37723 28.7126L2.59016 27.8135C2.24151 27.7611 1.91004 27.9998 1.85508 28.3511C1.80098 28.7023 2.04142 29.032 2.39265 29.0861L7.2497 29.841L5.56656 31.5241C5.31495 31.7758 5.31495 32.1837 5.56656 32.4353C5.69194 32.5607 5.85682 32.6242 6.0217 32.6242C6.18658 32.6242 6.35145 32.5615 6.47683 32.4353L8.15997 30.7521L8.91394 35.6084C8.96375 35.9261 9.23769 36.1537 9.54941 36.1537C9.58204 36.1537 9.61554 36.1511 9.64903 36.146C10.0003 36.0919 10.2407 35.7621 10.1866 35.4109L9.2875 29.6229L14.318 24.5932C15.4309 25.5266 16.8264 26.1329 18.3558 26.2669V33.3791L13.6284 36.8355C13.3416 37.0451 13.2789 37.4487 13.4885 37.7355C13.6147 37.9081 13.8105 38 14.0089 38C14.1411 38 14.2742 37.9596 14.3884 37.8755L18.3558 34.9746V37.3551C18.3558 37.7106 18.6444 37.9991 18.9999 37.9991C19.3554 37.9991 19.6439 37.7106 19.6439 37.3551V34.9746L23.6113 37.8755C23.7255 37.9596 23.8586 38 23.99 38C24.1884 38 24.3851 37.909 24.5104 37.7355C24.72 37.4487 24.6581 37.0451 24.3705 36.8355L19.6431 33.3791V26.2669C21.1725 26.1329 22.5671 25.5266 23.6809 24.5932L28.7105 29.6229L27.8114 35.41C27.7573 35.7612 27.9978 36.091 28.349 36.1451C28.3825 36.1502 28.416 36.1528 28.4486 36.1528C28.7603 36.1528 29.0351 35.9253 29.0841 35.6075L29.8389 30.7513L31.5221 32.4344C31.6474 32.5598 31.8123 32.6233 31.9772 32.6233C32.1421 32.6233 32.307 32.5607 32.4323 32.4344C32.6839 32.1828 32.6839 31.7749 32.4323 31.5233L30.7492 29.8401L35.6054 29.0853C35.9566 29.0312 36.1971 28.7014 36.143 28.3502C36.0889 27.999 35.7608 27.7594 35.4079 27.8126L29.6225 28.7126L24.5929 23.6829C25.5263 22.5691 26.1326 21.1745 26.2666 19.645H33.3787L36.8351 24.3725C36.9605 24.5451 37.1571 24.637 37.3555 24.637C37.4869 24.637 37.6209 24.5966 37.7342 24.5124C38.0219 24.3029 38.0837 23.8993 37.8742 23.6125L34.9751 19.6442ZM18.9999 25.0114C15.6851 25.0114 12.9887 22.314 12.9887 19.0001C12.9887 15.6853 15.6851 12.9888 18.9999 12.9888C22.3138 12.9888 25.0111 15.6853 25.0111 19.0001C25.0111 22.314 22.3138 25.0114 18.9999 25.0114Z"/>
</mask>
<path vector-effect="non-scaling-stroke" d="M34.9751 19.6442H37.3555C37.711 19.6442 37.9996 19.3556 37.9996 19.0001C37.9996 18.6446 37.711 18.356 37.3555 18.356H34.9751L37.8759 14.3886C38.0854 14.1018 38.0236 13.6982 37.7359 13.4886C37.4491 13.2774 37.0446 13.3418 36.836 13.6286L33.3795 18.356H26.2674C26.1335 16.8266 25.5272 15.432 24.5937 14.3182L29.6234 9.28761L35.4105 10.1859C35.4439 10.191 35.4774 10.1936 35.5101 10.1936C35.8218 10.1936 36.0966 9.96602 36.1455 9.64828C36.1996 9.2962 35.9592 8.96729 35.608 8.91319L30.7518 8.15921L32.4349 6.47605C32.6865 6.22444 32.6865 5.81653 32.4349 5.56492C32.1833 5.3133 31.7754 5.3133 31.5238 5.56492L29.8406 7.24807L29.0858 2.39182C29.0317 2.0406 28.7062 1.80358 28.3507 1.85425C27.9995 1.90835 27.7591 2.23811 27.8132 2.58934L28.7123 8.37647L23.6826 13.407C22.5688 12.4727 21.1742 11.8673 19.6448 11.7325V4.62115L24.3722 1.16467C24.6599 0.954273 24.7217 0.551518 24.5121 0.264695C24.3026 -0.0221283 23.8973 -0.085676 23.6122 0.124718L19.6448 3.02558V0.644264C19.6448 0.28874 19.3563 0.000199283 19.0007 0.000199283C18.6452 0.000199283 18.3567 0.28874 18.3567 0.644264V3.02473L14.3884 0.124718C14.1007 -0.085676 13.698 -0.0238458 13.4885 0.264695C13.2781 0.551518 13.3416 0.955132 13.6284 1.16467L18.3558 4.62115V11.7333C16.8264 11.8682 15.4318 12.4736 14.318 13.407L9.2875 8.37733L10.1857 2.5902C10.2398 2.23811 9.99939 1.90921 9.64817 1.8551C9.29694 1.80444 8.96804 2.04145 8.91308 2.39268L8.15911 7.24893L6.47597 5.56577C6.22436 5.31416 5.81646 5.31416 5.56485 5.56577C5.31323 5.81739 5.31323 6.2253 5.56485 6.47691L7.24798 8.16007L2.39179 8.91319C2.04057 8.96729 1.80012 9.29705 1.85422 9.64828C1.90403 9.96602 2.17797 10.1936 2.48969 10.1936C2.52232 10.1936 2.55581 10.191 2.5893 10.1859L8.37637 9.28761L13.406 14.3173C12.4726 15.4311 11.8672 16.8257 11.7323 18.3552H4.62109L1.16379 13.6286C0.953398 13.3409 0.551506 13.2791 0.263827 13.4886C-0.0229928 13.699 -0.085681 14.1018 0.123852 14.3886L3.02469 18.356H0.64425C0.288731 18.356 0.000193211 18.6446 0.000193211 19.0001C0.000193211 19.3556 0.288731 19.6442 0.64425 19.6442H3.02469L0.124711 23.6116C-0.0856811 23.8984 -0.0221341 24.302 0.264686 24.5116C0.379757 24.5957 0.512863 24.6361 0.64425 24.6361C0.84262 24.6361 1.03841 24.5451 1.16465 24.3716L4.62109 19.6442H11.7332C11.868 21.1736 12.4734 22.5682 13.4077 23.682L8.37723 28.7126L2.59016 27.8135C2.24151 27.7611 1.91004 27.9998 1.85508 28.3511C1.80098 28.7023 2.04142 29.032 2.39265 29.0861L7.2497 29.841L5.56656 31.5241C5.31495 31.7758 5.31495 32.1837 5.56656 32.4353C5.69194 32.5607 5.85682 32.6242 6.0217 32.6242C6.18658 32.6242 6.35145 32.5615 6.47683 32.4353L8.15997 30.7521L8.91394 35.6084C8.96375 35.9261 9.23769 36.1537 9.54941 36.1537C9.58204 36.1537 9.61554 36.1511 9.64903 36.146C10.0003 36.0919 10.2407 35.7621 10.1866 35.4109L9.2875 29.6229L14.318 24.5932C15.4309 25.5266 16.8264 26.1329 18.3558 26.2669V33.3791L13.6284 36.8355C13.3416 37.0451 13.2789 37.4487 13.4885 37.7355C13.6147 37.9081 13.8105 38 14.0089 38C14.1411 38 14.2742 37.9596 14.3884 37.8755L18.3558 34.9746V37.3551C18.3558 37.7106 18.6444 37.9991 18.9999 37.9991C19.3554 37.9991 19.6439 37.7106 19.6439 37.3551V34.9746L23.6113 37.8755C23.7255 37.9596 23.8586 38 23.99 38C24.1884 38 24.3851 37.909 24.5104 37.7355C24.72 37.4487 24.6581 37.0451 24.3705 36.8355L19.6431 33.3791V26.2669C21.1725 26.1329 22.5671 25.5266 23.6809 24.5932L28.7105 29.6229L27.8114 35.41C27.7573 35.7612 27.9978 36.091 28.349 36.1451C28.3825 36.1502 28.416 36.1528 28.4486 36.1528C28.7603 36.1528 29.0351 35.9253 29.0841 35.6075L29.8389 30.7513L31.5221 32.4344C31.6474 32.5598 31.8123 32.6233 31.9772 32.6233C32.1421 32.6233 32.307 32.5607 32.4323 32.4344C32.6839 32.1828 32.6839 31.7749 32.4323 31.5233L30.7492 29.8401L35.6054 29.0853C35.9566 29.0312 36.1971 28.7014 36.143 28.3502C36.0889 27.999 35.7608 27.7594 35.4079 27.8126L29.6225 28.7126L24.5929 23.6829C25.5263 22.5691 26.1326 21.1745 26.2666 19.645H33.3787L36.8351 24.3725C36.9605 24.5451 37.1571 24.637 37.3555 24.637C37.4869 24.637 37.6209 24.5966 37.7342 24.5124C38.0219 24.3029 38.0837 23.8993 37.8742 23.6125L34.9751 19.6442ZM18.9999 25.0114C15.6851 25.0114 12.9887 22.314 12.9887 19.0001C12.9887 15.6853 15.6851 12.9888 18.9999 12.9888C22.3138 12.9888 25.0111 15.6853 25.0111 19.0001C25.0111 22.314 22.3138 25.0114 18.9999 25.0114Z" fill="#0173FA" stroke="#0173FA" stroke-opacity="0.3" stroke-width="20" mask="url(#path-1-inside-1_162_513)"/>
</svg>
