<svg preserveAspectRatio="none" width="125" height="125" viewBox="0 0 125 125" fill="none" xmlns="http://www.w3.org/2000/svg">
<circle vector-effect="non-scaling-stroke" cx="74.2063" cy="66.237" r="7.98415" transform="rotate(-15 74.2063 66.237)" fill="white"/>
<path vector-effect="non-scaling-stroke" d="M77.9219 83.7707C74.6174 76.1723 83.6449 69.1915 90.1675 74.3014L115.821 94.3988C118.729 96.6773 119.694 100.653 118.154 104.012L117.681 105.045C117.428 105.595 117.114 106.115 116.745 106.594L115.004 108.851C114.683 109.267 114.321 109.651 113.925 109.996L111.751 111.889C111.355 112.234 110.925 112.539 110.468 112.8L107.202 114.665L103.669 116.297C103.324 116.456 102.967 116.591 102.603 116.7L100.212 117.412C96.3421 118.566 92.2202 116.648 90.6098 112.945L77.9219 83.7707Z" fill="white"/>
<path vector-effect="non-scaling-stroke" d="M58.4458 62.5936C66.4781 64.6275 66.4781 76.0393 58.4458 78.0733L26.8545 86.0729C23.273 86.9799 19.537 85.3111 17.8224 82.0385L17.2947 81.0313C17.0139 80.4954 16.795 79.9293 16.642 79.3439L15.9215 76.5859C15.7886 76.0772 15.7063 75.5566 15.6758 75.0317L15.5083 72.1545C15.4778 71.6296 15.4991 71.103 15.5721 70.5823L16.0942 66.8576L16.965 63.0645C17.0501 62.6937 17.1617 62.3294 17.2988 61.9744L18.1975 59.6474C19.6524 55.8804 23.6908 53.7928 27.6054 54.7841L58.4458 62.5936Z" fill="white"/>
<path vector-effect="non-scaling-stroke" d="M88.2055 56.0646C82.4279 62.0038 72.545 56.298 74.7997 48.3248L83.6674 16.9662C84.6727 13.411 87.9859 11.0099 91.6774 11.1613L92.8135 11.2079C93.418 11.2327 94.0177 11.3261 94.6012 11.4864L97.3499 12.2414C97.8569 12.3807 98.3489 12.5697 98.8188 12.8056L101.394 14.0993C101.864 14.3352 102.309 14.6171 102.724 14.9406L105.689 17.2551L108.538 19.9058C108.817 20.1649 109.076 20.4437 109.315 20.7398L110.881 22.6817C113.416 25.8251 113.205 30.3663 110.389 33.2608L88.2055 56.0646Z" fill="white"/>
</svg>
